HIERARCHY
ROOT Hips
{
	OFFSET 0.00 0.00 0.00
	CHANNELS 6 Xposition Yposition Zposition Xrotation Yrotation Zrotation
	JOINT Spine
	{
		OFFSET 0.00000 1.71530 2.57295
		CHANNELS 3 Xrotation Yrotation Zrotation
		JOINT Spine1
		{
			OFFSET 0.00000 0.59572 3.37848
			CHANNELS 3 Xrotation Yrotation Zrotation
			JOINT Spine2
			{
				OFFSET 0.00000 0.29900 3.41754
				CHANNELS 3 Xrotation Yrotation Zrotation
				JOINT Spine3
				{
					OFFSET 0.00000 0.00000 3.43059
					CHANNELS 3 Xrotation Yrotation Zrotation
					JOINT Neck
					{
						OFFSET 0.00000 -1.28647 9.00531
						CHANNELS 3 Xrotation Yrotation Zrotation
						JOINT Head
						{
							OFFSET 0.00000 -0.81911 4.64540
							CHANNELS 3 Xrotation Yrotation Zrotation
							End Site
							{
								OFFSET 0.00000 0.00000 5.55327
							}
						}
					}
					JOINT RightShoulder
					{
						OFFSET -1.18489 -1.97481 6.39840
						CHANNELS 3 Xrotation Yrotation Zrotation
						JOINT RightArm
						{
							OFFSET -5.88495 -0.00000 0.00000
							CHANNELS 3 Xrotation Yrotation Zrotation
							JOINT RightForeArm
							{
								OFFSET -11.35645 -0.00000 0.00000
								CHANNELS 3 Xrotation Yrotation Zrotation
								JOINT RightHand
								{
									OFFSET -9.35042 -0.00000 0.00000
									CHANNELS 3 Xrotation Yrotation Zrotation
									JOINT RightHandEnd
									{
										OFFSET -2.72041 -0.00000 0.00000
										CHANNELS 3 Xrotation Yrotation Zrotation
										End Site
										{
											OFFSET -2.72041 -0.00000 0.00000
										}
									}
									JOINT RightHandThumb1
									{
										OFFSET -1.08817 -1.81361 -0.72544
										CHANNELS 3 Xrotation Yrotation Zrotation
										End Site
										{
											OFFSET -2.62772 -0.70410 0.00000
										}
									}
								}
							}
						}
					}
					JOINT LeftShoulder
					{
						OFFSET 1.18489 -1.97481 6.39840
						CHANNELS 3 Xrotation Yrotation Zrotation
						JOINT LeftArm
						{
							OFFSET 5.88495 0.00000 0.00000
							CHANNELS 3 Xrotation Yrotation Zrotation
							JOINT LeftForeArm
							{
								OFFSET 11.35645 0.00000 0.00000
								CHANNELS 3 Xrotation Yrotation Zrotation
								JOINT LeftHand
								{
									OFFSET 9.35042 0.00000 0.00000
									CHANNELS 3 Xrotation Yrotation Zrotation
									JOINT LeftHandEnd
									{
										OFFSET 2.72041 0.00000 0.00000
										CHANNELS 3 Xrotation Yrotation Zrotation
										End Site
										{
											OFFSET 2.72041 0.00000 0.00000
										}
									}
									JOINT LeftHandThumb1
									{
										OFFSET 1.08817 -1.81361 -0.72544
										CHANNELS 3 Xrotation Yrotation Zrotation
										End Site
										{
											OFFSET 2.62772 -0.70410 0.00000
										}
									}
								}
							}
						}
					}
				}
			}
		}
	}
	JOINT RightUpLeg
	{
		OFFSET -3.51517 0.00000 -1.02690
		CHANNELS 3 Xrotation Yrotation Zrotation
		JOINT RightLeg
		{
			OFFSET 0.00000 0.00000 -15.96284
			CHANNELS 3 Xrotation Yrotation Zrotation
			JOINT RightFoot
			{
				OFFSET 0.00000 0.00000 -16.79853
				CHANNELS 3 Xrotation Yrotation Zrotation
				JOINT RightToeBase
				{
					OFFSET 0.00000 -7.31607 -2.66283
					CHANNELS 3 Xrotation Yrotation Zrotation
					End Site
					{
						OFFSET 0.00000 -2.84373 0.00000
					}
				}
			}
		}
	}
	JOINT LeftUpLeg
	{
		OFFSET 3.51517 0.00000 -1.02690
		CHANNELS 3 Xrotation Yrotation Zrotation
		JOINT LeftLeg
		{
			OFFSET 0.00000 0.00000 -15.96284
			CHANNELS 3 Xrotation Yrotation Zrotation
			JOINT LeftFoot
			{
				OFFSET 0.00000 0.00000 -16.79853
				CHANNELS 3 Xrotation Yrotation Zrotation
				JOINT LeftToeBase
				{
					OFFSET 0.00000 -7.31607 -2.66283
					CHANNELS 3 Xrotation Yrotation Zrotation
					End Site
					{
						OFFSET 0.00000 -2.84373 0.00000
					}
				}
			}
		}
	}
}
MOTION
Frames: 10
Frame Time: 0.008333
 3.3135 35.3799 -2.1048 -84.2517 0.8105 -151.7158 -1.4065 -4.4535 -0.2756 -0.7680 -1.0041 -0.0846 2.1463 -2.5850 3.7043 1.2471 -1.2891 0.3998 8.7340 5.6582 -0.6517 7.1212 3.4145 -15.9264 1.3652 17.3484 6.6455 55.3448 -28.2098 74.1203 -0.0000 0.0000 88.5056 15.5316 -5.7509 -0.7981 -0.0000 -0.0000 -0.0000 -0.0000 -0.0000 0.0000 0.6230 -13.1749 -2.3445 -31.9543 29.9141 6.0642 -0.0000 -0.0000 -65.9913 -149.0588 -9.8210 -118.6225 0.0000 -0.0000 0.0000 -0.0000 0.0000 0.0000 14.5911 1.6861 -23.3586 7.8038 0.0000 0.0000 -14.2953 -6.9880 -13.6230 -0.0471 0.0000 0.0000 -3.4699 -19.9882 10.4411 9.0953 0.0000 -0.0000 4.6066 2.5583 8.1111 1.2507 -0.0000 0.0000
 3.1575 35.3512 -2.1876 -84.1454 0.6838 -151.7272 -1.6823 -4.5421 -0.3534 -0.9486 -1.0625 -0.0868 2.1610 -2.7342 3.7061 1.3011 -1.3589 0.4392 9.0211 5.7365 -0.6890 7.2767 3.4287 -15.9693 1.3693 17.1571 6.4279 53.9551 -27.9356 73.5615 -0.0000 0.0000 90.4650 15.3602 -6.3054 -0.6101 -0.0000 0.0000 0.0000 0.0000 -0.0000 0.0000 0.6580 -12.6451 -2.1808 -30.3323 29.7012 5.0323 -0.0000 -0.0000 -65.8888 -149.0798 -8.1391 -118.5646 -0.0000 -0.0000 -0.0000 0.0000 -0.0000 0.0000 15.5883 1.3669 -22.6523 6.2835 0.0000 -0.0000 -13.8760 -7.2292 -14.3093 0.0097 -0.0000 0.0000 -2.2117 -19.8939 9.5770 7.6329 0.0000 -0.0000 6.4020 3.0869 8.4933 1.2553 -0.0000 0.0000
 3.0017 35.3039 -2.2679 -83.9494 0.4801 -151.7524 -1.9042 -4.7369 -0.4484 -1.0877 -1.1311 -0.0903 2.1562 -2.9048 3.7240 1.3457 -1.4170 0.4839 9.3015 5.8732 -0.7248 7.4606 3.4185 -16.0614 1.3450 17.0078 6.2416 52.4698 -27.7470 72.9960 -0.0000 0.0000 92.4858 15.1685 -6.6659 -0.3967 -0.0000 0.0000 -0.0000 0.0000 0.0000 -0.0000 0.7006 -12.1742 -1.9317 -28.9563 29.5977 4.0724 0.0000 0.0000 -65.8211 -149.0174 -6.7866 -118.3660 0.0000 0.0000 0.0000 0.0000 -0.0000 0.0000 16.5698 0.9937 -22.0052 4.9003 -0.0000 -0.0000 -13.5359 -7.4423 -14.8939 0.0365 0.0000 0.0000 -0.9665 -19.9822 8.6800 6.3457 -0.0000 0.0000 7.1618 6.3871 9.1659 2.0354 -0.0000 0.0000
 2.8495 35.2163 -2.3448 -83.5907 -0.1202 -151.7042 -2.1133 -5.4390 -0.6470 -1.1828 -1.1807 -0.0960 2.0259 -3.0328 3.7845 1.3679 -1.4363 0.5223 9.5659 6.0010 -0.7484 7.8380 3.3889 -16.2048 1.3178 17.0057 6.1146 50.9526 -27.8114 72.4798 -0.0000 0.0000 94.5939 14.8367 -6.9443 -0.2279 -0.0000 0.0000 0.0000 -0.0000 0.0000 -0.0000 0.7966 -12.0071 -1.6919 -27.8695 29.7555 3.3658 0.0000 -0.0000 -65.7969 -149.1939 -4.5044 -118.3647 -0.0000 -0.0000 0.0000 0.0000 -0.0000 0.0000 17.4273 0.2307 -21.3113 3.6933 0.0000 0.0000 -13.3644 -7.7358 -15.4682 0.0645 0.0000 0.0000 0.1303 -20.5090 7.8380 5.2982 -0.0000 0.0000 5.1389 12.4290 11.7939 1.6319 -0.0000 0.0000
 2.6855 35.1294 -2.4100 -83.2328 -0.5538 -151.6382 -2.2595 -6.0191 -0.8676 -1.2478 -1.2027 -0.1021 1.9469 -3.1936 3.8574 1.3883 -1.4476 0.5571 9.8183 6.1953 -0.7406 8.1685 3.3504 -16.4085 1.2872 16.9631 5.9917 49.2759 -27.9032 71.8852 -0.0000 0.0000 96.6817 14.5792 -6.8801 0.0220 -0.0000 -0.0000 0.0000 0.0000 -0.0000 0.0000 0.8927 -11.7162 -1.3486 -27.0192 29.9015 2.5781 -0.0000 0.0000 -65.7094 -149.1243 -4.5727 -117.8210 -0.0000 0.0000 -0.0000 0.0000 -0.0000 0.0000 18.2987 -0.3197 -20.7815 2.6377 0.0000 -0.0000 -13.2721 -8.0983 -15.9287 0.0984 0.0000 0.0000 1.1157 -20.6525 6.9468 4.4667 0.0000 0.0000 2.5673 14.1600 15.0210 1.6509 -0.0000 0.0000
 2.5151 35.0568 -2.4690 -82.8879 -0.7185 -151.6115 -2.3499 -6.3022 -1.0341 -1.2605 -1.2592 -0.1104 1.9751 -3.3833 3.9347 1.4082 -1.4567 0.5890 10.0439 6.4018 -0.7327 8.3899 3.3613 -16.6627 1.1981 16.7765 5.8945 47.4620 -28.0639 71.1649 -0.0000 -0.0000 98.7504 14.4041 -6.8829 0.2790 -0.0000 -0.0000 0.0000 0.0000 0.0000 -0.0000 0.9135 -11.3381 -0.8531 -26.2890 30.1243 1.6552 0.0000 0.0000 -65.5995 -149.3316 -3.6915 -117.5774 -0.0000 -0.0000 0.0000 0.0000 0.0000 0.0000 19.2023 -0.5639 -20.2343 1.7790 -0.0000 -0.0000 -13.2330 -8.4239 -16.4052 0.2303 0.0000 0.0000 2.0949 -20.5651 6.2560 3.8695 0.0000 0.0000 0.3278 13.6583 17.3097 1.6228 -0.0000 0.0000
 2.3295 35.0334 -2.5253 -82.6604 -0.0903 -151.7202 -2.3249 -5.6752 -0.9606 -1.2088 -1.3714 -0.1212 2.2468 -3.6796 3.9612 1.4534 -1.4909 0.6030 10.2638 6.6912 -0.6906 8.3456 3.3689 -16.9923 1.0605 16.3305 5.7438 45.4777 -28.1824 70.3115 -0.0000 0.0000 100.7272 14.1805 -6.7482 0.4969 0.0000 -0.0000 -0.0000 0.0000 -0.0000 -0.0000 0.8610 -10.5468 -0.2638 -25.6334 30.0972 0.5013 -0.0000 0.0000 -65.4961 -149.5834 -3.0965 -117.5476 -0.0000 -0.0000 0.0000 0.0000 -0.0000 0.0000 20.3228 0.0189 -19.9815 1.0441 0.0000 0.0000 -13.1560 -8.7440 -16.7524 0.3025 -0.0000 -0.0000 3.2540 -19.7910 6.0735 3.4586 0.0000 0.0000 -0.5769 13.0549 17.8555 1.1422 -0.0000 0.0000
 2.1432 35.0052 -2.5787 -82.3325 0.4731 -151.7898 -2.2325 -5.1570 -0.8912 -1.0994 -1.4919 -0.1339 2.4718 -3.9457 3.9689 1.4813 -1.5018 0.6043 10.4680 6.9173 -0.6486 8.3760 3.4021 -17.2862 0.9831 15.8306 5.5973 43.3052 -28.3296 69.4342 -0.0000 0.0000 102.6415 13.9063 -6.4712 0.7477 0.0000 -0.0000 0.0000 0.0000 -0.0000 0.0000 0.8071 -9.8663 0.2737 -25.2562 30.1965 -0.4323 0.0000 0.0000 -65.4170 -149.7555 -2.6126 -117.5783 -0.0000 -0.0000 -0.0000 0.0000 -0.0000 0.0000 21.4222 0.5301 -19.7925 0.4746 -0.0000 -0.0000 -13.1170 -9.1250 -17.0304 0.3405 0.0000 0.0000 4.3740 -19.1714 6.2199 2.9831 -0.0000 -0.0000 -1.1001 12.9493 17.8611 1.0620 -0.0000 0.0000
 1.9555 34.9772 -2.6241 -82.0069 1.0979 -151.8360 -2.0819 -4.5698 -0.7691 -0.9671 -1.6130 -0.1482 2.6639 -4.2093 3.9354 1.4932 -1.4929 0.5940 10.6465 7.1004 -0.6026 8.4545 3.4444 -17.5947 0.9358 15.2949 5.4639 41.0354 -28.6162 68.5713 -0.0000 -0.0000 104.4505 13.5335 -6.0220 0.9634 -0.0000 -0.0000 -0.0000 0.0000 -0.0000 -0.0000 0.7895 -9.3759 0.8088 -25.0035 30.5232 -1.2514 -0.0000 -0.0000 -65.3212 -149.7255 -2.7561 -117.5083 -0.0000 0.0000 -0.0000 0.0000 0.0000 -0.0000 22.4690 1.1071 -19.7422 0.0375 0.0000 0.0000 -13.1183 -9.4256 -17.2872 0.3660 0.0000 0.0000 5.4261 -18.5321 6.8717 2.5617 -0.0000 -0.0000 -1.2763 13.6168 17.4776 1.0601 0.0000 -0.0000
 1.7666 34.9529 -2.6623 -81.6851 1.7270 -151.8366 -1.9062 -3.9829 -0.6130 -0.8304 -1.7272 -0.1640 2.8294 -4.4444 3.8583 1.5025 -1.4747 0.5660 10.8153 7.2196 -0.5456 8.5906 3.4916 -17.8954 0.8767 14.7132 5.4060 38.7278 -29.0519 67.6750 -0.0000 0.0000 106.1659 13.1157 -5.4146 1.1446 -0.0000 0.0000 0.0000 0.0000 -0.0000 -0.0000 0.7783 -9.0833 1.3107 -24.8931 31.1051 -1.8789 -0.0000 0.0000 -65.2352 -149.5159 -2.7528 -117.5762 -0.0000 0.0000 0.0000 0.0000 -0.0000 0.0000 23.4159 1.7154 -19.8815 -0.2028 0.0000 0.0000 -13.1507 -9.8294 -17.3967 0.3717 -0.0000 0.0000 6.3858 -17.9063 7.7714 2.2268 -0.0000 0.0000 -1.2063 14.1802 16.7266 1.1353 0.0000 0.0000
